<svg width="951" height="229" viewBox="0 0 951 229" fill="none" xmlns="http://www.w3.org/2000/svg">
<rect x="1.5" y="1.5" width="948" height="226" fill="white" stroke="black" stroke-width="3"/>
<path d="M219.934 178H202.145L156.513 105.367V178H138.723V75.625H156.513L202.286 148.539V75.625H219.934V178ZM236.256 139.258C236.256 131.805 237.733 125.102 240.686 119.148C243.639 113.148 247.788 108.555 253.131 105.367C258.475 102.133 264.616 100.516 271.553 100.516C281.819 100.516 290.139 103.82 296.514 110.43C302.936 117.039 306.405 125.805 306.92 136.727L306.991 140.734C306.991 148.234 305.538 154.938 302.631 160.844C299.772 166.75 295.647 171.32 290.256 174.555C284.913 177.789 278.725 179.406 271.694 179.406C260.959 179.406 252.358 175.844 245.889 168.719C239.467 161.547 236.256 152.008 236.256 140.102V139.258ZM253.342 140.734C253.342 148.562 254.959 154.703 258.194 159.156C261.428 163.562 265.928 165.766 271.694 165.766C277.459 165.766 281.936 163.516 285.123 159.016C288.358 154.516 289.975 147.93 289.975 139.258C289.975 131.57 288.311 125.477 284.983 120.977C281.702 116.477 277.225 114.227 271.553 114.227C265.975 114.227 261.545 116.453 258.264 120.906C254.983 125.312 253.342 131.922 253.342 140.734ZM343 83.4297V101.922H356.43V114.578H343V157.047C343 159.953 343.563 162.062 344.688 163.375C345.859 164.641 347.922 165.273 350.875 165.273C352.844 165.273 354.836 165.039 356.852 164.57V177.789C352.961 178.867 349.211 179.406 345.602 179.406C332.477 179.406 325.914 172.164 325.914 157.68V114.578H313.398V101.922H325.914V83.4297H343ZM485.823 164.711C482.12 169.539 476.988 173.195 470.425 175.68C463.863 178.164 456.409 179.406 448.066 179.406C439.488 179.406 431.894 177.461 425.284 173.57C418.675 169.68 413.566 164.125 409.956 156.906C406.394 149.641 404.542 141.18 404.402 131.523V123.508C404.402 108.039 408.105 95.9688 415.511 87.2969C422.917 78.5781 433.253 74.2188 446.519 74.2188C457.909 74.2188 466.956 77.0312 473.659 82.6562C480.363 88.2812 484.394 96.3906 485.753 106.984H468.316C466.347 94.6562 459.198 88.4922 446.87 88.4922C438.902 88.4922 432.831 91.375 428.659 97.1406C424.534 102.859 422.402 111.273 422.261 122.383V130.258C422.261 141.32 424.581 149.922 429.222 156.062C433.909 162.156 440.402 165.203 448.698 165.203C457.792 165.203 464.261 163.141 468.105 159.016V138.977H447.011V125.477H485.823V164.711ZM522.044 178H504.958V101.922H522.044V178ZM503.903 82.1641C503.903 79.5391 504.723 77.3594 506.364 75.625C508.052 73.8906 510.442 73.0234 513.536 73.0234C516.63 73.0234 519.02 73.8906 520.708 75.625C522.395 77.3594 523.239 79.5391 523.239 82.1641C523.239 84.7422 522.395 86.8984 520.708 88.6328C519.02 90.3203 516.63 91.1641 513.536 91.1641C510.442 91.1641 508.052 90.3203 506.364 88.6328C504.723 86.8984 503.903 84.7422 503.903 82.1641ZM562.272 83.4297V101.922H575.702V114.578H562.272V157.047C562.272 159.953 562.834 162.062 563.959 163.375C565.131 164.641 567.194 165.273 570.147 165.273C572.116 165.273 574.108 165.039 576.123 164.57V177.789C572.233 178.867 568.483 179.406 564.873 179.406C551.748 179.406 545.186 172.164 545.186 157.68V114.578H532.67V101.922H545.186V83.4297H562.272ZM605.805 110.219C611.383 103.75 618.438 100.516 626.969 100.516C643.188 100.516 651.414 109.773 651.648 128.289V178H634.562V128.922C634.562 123.672 633.414 119.969 631.117 117.812C628.867 115.609 625.539 114.508 621.133 114.508C614.289 114.508 609.18 117.555 605.805 123.648V178H588.719V70H605.805V110.219ZM715.22 170.547C710.205 176.453 703.08 179.406 693.845 179.406C685.595 179.406 679.338 176.992 675.072 172.164C670.853 167.336 668.744 160.352 668.744 151.211V101.922H685.83V151C685.83 160.656 689.838 165.484 697.853 165.484C706.15 165.484 711.752 162.508 714.658 156.555V101.922H731.744V178H715.642L715.22 170.547ZM816.058 140.734C816.058 152.547 813.409 161.945 808.112 168.93C802.862 175.914 795.62 179.406 786.386 179.406C777.48 179.406 770.542 176.195 765.573 169.773L764.73 178H749.261V70H766.347V109.234C771.269 103.422 777.902 100.516 786.245 100.516C795.527 100.516 802.816 103.961 808.112 110.852C813.409 117.742 816.058 127.375 816.058 139.75V140.734ZM798.972 139.258C798.972 131.008 797.519 124.82 794.612 120.695C791.706 116.57 787.487 114.508 781.956 114.508C774.55 114.508 769.347 117.742 766.347 124.211V155.57C769.394 162.18 774.644 165.484 782.097 165.484C787.441 165.484 791.566 163.492 794.472 159.508C797.378 155.523 798.878 149.5 798.972 141.438V139.258Z" fill="black"/>
</svg>
