<svg width="886" height="216" viewBox="0 0 886 216" fill="none" xmlns="http://www.w3.org/2000/svg">
<path d="M851 0H36V216H851V0Z" fill="#2B3648"/>
<path d="M187.934 150H170.145L124.513 77.3672V150H106.723V47.625H124.513L170.286 120.539V47.625H187.934V150ZM204.256 111.258C204.256 103.805 205.733 97.1016 208.686 91.1484C211.639 85.1484 215.788 80.5547 221.131 77.3672C226.475 74.1328 232.616 72.5156 239.553 72.5156C249.819 72.5156 258.139 75.8203 264.514 82.4297C270.936 89.0391 274.405 97.8047 274.92 108.727L274.991 112.734C274.991 120.234 273.538 126.938 270.631 132.844C267.772 138.75 263.647 143.32 258.256 146.555C252.913 149.789 246.725 151.406 239.694 151.406C228.959 151.406 220.358 147.844 213.889 140.719C207.467 133.547 204.256 124.008 204.256 112.102V111.258ZM221.342 112.734C221.342 120.562 222.959 126.703 226.194 131.156C229.428 135.562 233.928 137.766 239.694 137.766C245.459 137.766 249.936 135.516 253.123 131.016C256.358 126.516 257.975 119.93 257.975 111.258C257.975 103.57 256.311 97.4766 252.983 92.9766C249.702 88.4766 245.225 86.2266 239.553 86.2266C233.975 86.2266 229.545 88.4531 226.264 92.9062C222.983 97.3125 221.342 103.922 221.342 112.734ZM311 55.4297V73.9219H324.43V86.5781H311V129.047C311 131.953 311.562 134.062 312.688 135.375C313.859 136.641 315.922 137.273 318.875 137.273C320.844 137.273 322.836 137.039 324.852 136.57V149.789C320.961 150.867 317.211 151.406 313.602 151.406C300.477 151.406 293.914 144.164 293.914 129.68V86.5781H281.398V73.9219H293.914V55.4297H311ZM453.823 136.711C450.12 141.539 444.988 145.195 438.425 147.68C431.863 150.164 424.409 151.406 416.066 151.406C407.488 151.406 399.894 149.461 393.284 145.57C386.675 141.68 381.566 136.125 377.956 128.906C374.394 121.641 372.542 113.18 372.402 103.523V95.5078C372.402 80.0391 376.105 67.9688 383.511 59.2969C390.917 50.5781 401.253 46.2188 414.519 46.2188C425.909 46.2188 434.956 49.0312 441.659 54.6562C448.363 60.2812 452.394 68.3906 453.753 78.9844H436.316C434.347 66.6562 427.198 60.4922 414.87 60.4922C406.902 60.4922 400.831 63.375 396.659 69.1406C392.534 74.8594 390.402 83.2734 390.261 94.3828V102.258C390.261 113.32 392.581 121.922 397.222 128.062C401.909 134.156 408.402 137.203 416.698 137.203C425.792 137.203 432.261 135.141 436.105 131.016V110.977H415.011V97.4766H453.823V136.711ZM490.044 150H472.958V73.9219H490.044V150ZM471.903 54.1641C471.903 51.5391 472.723 49.3594 474.364 47.625C476.052 45.8906 478.442 45.0234 481.536 45.0234C484.63 45.0234 487.02 45.8906 488.708 47.625C490.395 49.3594 491.239 51.5391 491.239 54.1641C491.239 56.7422 490.395 58.8984 488.708 60.6328C487.02 62.3203 484.63 63.1641 481.536 63.1641C478.442 63.1641 476.052 62.3203 474.364 60.6328C472.723 58.8984 471.903 56.7422 471.903 54.1641ZM530.272 55.4297V73.9219H543.702V86.5781H530.272V129.047C530.272 131.953 530.834 134.062 531.959 135.375C533.131 136.641 535.194 137.273 538.147 137.273C540.116 137.273 542.108 137.039 544.123 136.57V149.789C540.233 150.867 536.483 151.406 532.873 151.406C519.748 151.406 513.186 144.164 513.186 129.68V86.5781H500.67V73.9219H513.186V55.4297H530.272ZM573.805 82.2188C579.383 75.75 586.438 72.5156 594.969 72.5156C611.188 72.5156 619.414 81.7734 619.648 100.289V150H602.562V100.922C602.562 95.6719 601.414 91.9688 599.117 89.8125C596.867 87.6094 593.539 86.5078 589.133 86.5078C582.289 86.5078 577.18 89.5547 573.805 95.6484V150H556.719V42H573.805V82.2188ZM683.22 142.547C678.205 148.453 671.08 151.406 661.845 151.406C653.595 151.406 647.338 148.992 643.072 144.164C638.853 139.336 636.744 132.352 636.744 123.211V73.9219H653.83V123C653.83 132.656 657.838 137.484 665.853 137.484C674.15 137.484 679.752 134.508 682.658 128.555V73.9219H699.744V150H683.642L683.22 142.547ZM784.058 112.734C784.058 124.547 781.409 133.945 776.112 140.93C770.862 147.914 763.62 151.406 754.386 151.406C745.48 151.406 738.542 148.195 733.573 141.773L732.73 150H717.261V42H734.347V81.2344C739.269 75.4219 745.902 72.5156 754.245 72.5156C763.527 72.5156 770.816 75.9609 776.112 82.8516C781.409 89.7422 784.058 99.375 784.058 111.75V112.734ZM766.972 111.258C766.972 103.008 765.519 96.8203 762.612 92.6953C759.706 88.5703 755.487 86.5078 749.956 86.5078C742.55 86.5078 737.347 89.7422 734.347 96.2109V127.57C737.394 134.18 742.644 137.484 750.097 137.484C755.441 137.484 759.566 135.492 762.472 131.508C765.378 127.523 766.878 121.5 766.972 113.438V111.258Z" fill="white"/>
</svg>
